<?xml version="1.0" encoding="utf-8"?>
<!-- Generator: Adobe Illustrator 16.0.0, SVG Export Plug-In . SVG Version: 6.00 Build 0)  -->
<!DOCTYPE svg PUBLIC "-//W3C//DTD SVG 1.1//EN" "http://www.w3.org/Graphics/SVG/1.1/DTD/svg11.dtd">
<svg version="1.1" id="Слой_1" xmlns="http://www.w3.org/2000/svg" xmlns:xlink="http://www.w3.org/1999/xlink" x="0px" y="0px"
	 width="150px" height="150px" viewBox="0 0 149.973 182.55" enable-background="new 0 0 149.973 182.55"
	 xml:space="preserve">
<g>
	<g>
		<g>
			<path fill="none" stroke="#073B49" stroke-width="2" stroke-linecap="round" stroke-linejoin="round" stroke-miterlimit="10" d="
				M62.649,54.878c-22.619,0-40.959,18.344-40.959,40.969c0,22.623,18.34,40.963,40.959,40.963c22.629,0,40.974-18.34,40.974-40.963
				C103.623,73.222,85.278,54.878,62.649,54.878L62.649,54.878z"/>
			<path fill="none" stroke="#073B49" stroke-width="2" stroke-linecap="round" stroke-linejoin="round" stroke-miterlimit="10" d="
				M81.429,40.564c2.21-0.389,4.489-0.59,6.809-0.59c21.75,0,39.379,17.631,39.379,39.387c0,8.787-2.875,16.91-7.751,23.463
				c1.521-4.738,2.298-9.67,2.298-14.719c0-19.719-11.908-36.932-29.375-44.32C89.126,42.236,85.326,41.16,81.429,40.564z"/>
			<path fill="none" stroke="#073B49" stroke-width="2" stroke-linecap="round" stroke-linejoin="round" stroke-miterlimit="10" d="
				M62.64,48.439c6.355,0,12.523,1.242,18.336,3.699c17.1,7.24,28.775,24.094,28.775,43.41c0,6.359-1.248,12.531-3.707,18.34
				c-0.367,0.871-0.761,1.723-1.178,2.564c6.868-7.455,11.061-17.41,11.061-28.348c0-23.121-18.738-41.869-41.869-41.869
				c-4.746,0-9.307,0.795-13.549,2.25C61.214,48.455,61.925,48.439,62.64,48.439z"/>
			
				<path id="currency-russian-ruble-icon_2_" fill="none" stroke="#073B49" stroke-width="2" stroke-linecap="round" stroke-linejoin="round" stroke-miterlimit="10" d="
				M49.441,119.865v-6.742h-6.103v-7.092h6.103v-6.068h-6.103v-7.098h6.103v-17.91h15.319c6.218,0,10.702,0,14.338,4.727
				c3.93,5.107,3.287,13.691-2.523,17.727c-3.367,2.34-6.6,2.59-13.162,2.59h-5.53v6.033h11.094v7.092H57.883v6.742H49.441z
				 M57.883,92.898h7.255c4.266,0,7.596-1.275,7.596-5.549c0-4.287-3.896-5.326-8.139-5.326h-6.712V92.898z"/>
		</g>
		<g>
			<path fill="none" stroke="#D1D3D4" stroke-width="2" stroke-linecap="round" stroke-linejoin="round" stroke-miterlimit="10" d="
				M62.649,53.117c-22.619,0-40.959,18.346-40.959,40.971c0,22.623,18.34,40.963,40.959,40.963c22.629,0,40.974-18.34,40.974-40.963
				C103.623,71.462,85.278,53.117,62.649,53.117L62.649,53.117z"/>
			<path fill="none" stroke="#D1D3D4" stroke-width="2" stroke-linecap="round" stroke-linejoin="round" stroke-miterlimit="10" d="
				M81.429,38.804c2.21-0.389,4.489-0.59,6.809-0.59c21.75,0,39.379,17.631,39.379,39.385c0,8.789-2.875,16.91-7.751,23.463
				c1.521-4.738,2.298-9.67,2.298-14.717c0-19.719-11.908-36.934-29.375-44.322C89.126,40.474,85.326,39.398,81.429,38.804z"/>
			<path fill="none" stroke="#D1D3D4" stroke-width="2" stroke-linecap="round" stroke-linejoin="round" stroke-miterlimit="10" d="
				M62.64,46.677c6.355,0,12.523,1.242,18.336,3.701c17.1,7.238,28.775,24.094,28.775,43.408c0,6.359-1.248,12.531-3.707,18.342
				c-0.367,0.871-0.761,1.723-1.178,2.564c6.868-7.457,11.061-17.41,11.061-28.348c0-23.123-18.738-41.871-41.869-41.871
				c-4.746,0-9.307,0.795-13.549,2.25C61.214,46.693,61.925,46.677,62.64,46.677z"/>
			
				<path id="currency-russian-ruble-icon_3_" fill="none" stroke="#D1D3D4" stroke-width="2" stroke-linecap="round" stroke-linejoin="round" stroke-miterlimit="10" d="
				M49.441,118.105v-6.744h-6.103v-7.092h6.103v-6.068h-6.103v-7.096h6.103V73.193h15.319c6.218,0,10.702,0,14.338,4.729
				c3.93,5.105,3.287,13.689-2.523,17.725c-3.367,2.34-6.6,2.59-13.162,2.59h-5.53v6.033h11.094v7.092H57.883v6.744H49.441z
				 M57.883,91.138h7.255c4.266,0,7.596-1.275,7.596-5.551c0-4.285-3.896-5.324-8.139-5.324h-6.712V91.138z"/>
		</g>
	</g>
</g>
</svg>
